<svg xmlns="http://www.w3.org/2000/svg" version="1.0" width="24px" height="24px" viewBox="0 0 512.000000 512.000000" preserveAspectRatio="xMidYMid meet">

<g transform="translate(0.000000,512.000000) scale(0.100000,-0.100000)" fill="#000000" stroke="none">
<path d="M910 4674 c-177 -47 -335 -175 -415 -339 -70 -141 -66 -20 -63 -1801 l3 -1609 26 -67 c74 -190 207 -323 397 -397 l67 -26 1625 0 1625 0 70 22 c188 60 337 204 414 401 l26 67 0 1625 0 1625 -22 70 c-60 190 -202 337 -401 414 l-67 26 -1615 2 c-1384 2 -1623 0 -1670 -13z m3198 -416 c64 -16 134 -86 150 -150 17 -67 17 -3029 0 -3096 -16 -64 -86 -134 -150 -150 -67 -17 -3029 -17 -3096 0 -64 16 -134 86 -150 150 -9 35 -12 432 -12 1551 0 1695 -6 1574 76 1645 24 22 61 45 82 50 57 15 3040 15 3100 0z"/>
<path d="M1646 3190 c-107 -32 -171 -144 -145 -255 11 -48 27 -66 473 -514 309 -311 474 -469 501 -482 46 -21 100 -24 159 -7 35 10 108 78 498 466 381 380 461 464 479 506 44 102 -1 218 -106 274 -42 22 -140 21 -185 -2 -19 -10 -198 -181 -398 -379 l-362 -362 -363 362 c-377 378 -409 403 -487 402 -19 0 -48 -5 -64 -9z"/>
</g>
</svg>